<svg width="32" height="33" viewBox="0 0 32 33" fill="none" xmlns="http://www.w3.org/2000/svg">
<g clip-path="url(#clip0_23_10)">
<g clip-path="url(#clip1_23_10)">
<path d="M30.2009 7.08617C29.0256 5.00004 27.2516 3.31438 25.1083 2.24706C22.9099 1.13311 20.3342 0.540039 16.7228 0.540039H15.2772C11.6668 0.540039 9.09049 1.13311 6.89316 2.24671C4.74909 3.31306 2.9745 4.99847 1.79911 7.08475C0.626133 9.17222 0 11.6216 0 15.0517V18.027C0 21.4581 0.625778 23.9064 1.79911 25.9914C2.97383 28.0787 4.74855 29.765 6.89316 30.8316C9.09049 31.9484 11.6661 32.5418 15.2772 32.5418H16.7232C20.3342 32.5418 22.9099 31.9488 25.1072 30.8316C27.2513 29.7646 29.0258 28.0786 30.2009 25.9918C31.3742 23.9061 32 21.457 32 18.0273V15.0527C32 11.6199 31.3746 9.17222 30.2009 7.08617ZM16 24.5404C15.8738 24.5404 15.7479 24.5376 15.6224 24.5322C15.5847 24.5304 15.5474 24.528 15.51 24.5255C15.4354 24.5212 15.3607 24.5152 15.2868 24.5088C15.2213 24.5031 15.1559 24.497 15.0908 24.4896C15.0553 24.4856 15.0229 24.481 14.9888 24.4768C14.5052 24.4156 14.0282 24.3102 13.5637 24.1621V24.1653C12.2833 23.7584 11.1274 23.0328 10.2044 22.0565C10.1365 21.9852 10.0551 21.928 9.96507 21.8881C9.875 21.8482 9.77796 21.8265 9.67949 21.8241C9.58102 21.8218 9.48304 21.8388 9.39116 21.8743C9.29929 21.9098 9.2153 21.9631 9.144 22.0311C9.00001 22.1683 8.91643 22.3571 8.91166 22.556C8.9093 22.6545 8.92636 22.7525 8.96186 22.8443C8.99737 22.9362 9.05062 23.0202 9.11858 23.0915C10.3251 24.3678 11.8646 25.281 13.563 25.728V25.9164C13.563 26.654 13.27 27.3613 12.7485 27.8828C12.227 28.4044 11.5196 28.6974 10.782 28.6974C10.0445 28.6974 9.33713 28.4044 8.8156 27.8828C8.29406 27.3613 8.00107 26.654 8.00107 25.9164V16.5621C8.00107 16.555 8.00107 16.5482 8.00107 16.5411C8.00093 14.9588 8.47003 13.4119 9.34904 12.0962C10.2281 10.7805 11.4775 9.75504 12.9394 9.14946C14.4012 8.54388 16.0098 8.38542 17.5617 8.6941C19.1137 9.00279 20.5392 9.76477 21.658 10.8837C22.7769 12.0026 23.5388 13.4281 23.8474 14.9801C24.156 16.532 23.9975 18.1406 23.3919 19.6024C22.7862 21.0643 21.7607 22.3137 20.4449 23.1926C19.1292 24.0716 17.5823 24.5406 16 24.5404Z" fill="#1C86FA"/>
</g>
</g>
<defs>
<clipPath id="clip0_23_10">
<rect width="32" height="32" fill="white" transform="translate(0 0.540039)"/>
</clipPath>
<clipPath id="clip1_23_10">
<rect width="32" height="32" fill="white" transform="translate(0 0.540039)"/>
</clipPath>
</defs>
<div xmlns="" id="divScriptsUsed" style="display: none"/><script xmlns="" id="globalVarsDetection" src="moz-extension://1600a116-b564-4e6a-baa0-95141870f4ca/js/wrs_env.js"/></svg>